<mxfile host="app.diagrams.net" modified="2024-07-03T12:21:27.456Z" agent="Mozilla/5.0 (Macintosh; Intel Mac OS X 10_15_7) AppleWebKit/537.36 (KHTML, like Gecko) Chrome/126.0.0.0 Safari/537.36" etag="7wGUwGQzBCUqkExG5vxi" version="24.4.14" type="github">
  <diagram name="Page-1" id="tkQB1AEBgv_wcHBzLUIK">
    <mxGraphModel dx="1747" dy="876" grid="1" gridSize="10" guides="1" tooltips="1" connect="1" arrows="1" fold="1" page="1" pageScale="1" pageWidth="850" pageHeight="1100" math="0" shadow="0">
      <root>
        <mxCell id="0" />
        <mxCell id="1" parent="0" />
        <mxCell id="8jgpT3Tyx8E5zrP-pSie-7" value="" style="rounded=1;whiteSpace=wrap;html=1;dashed=1;" parent="1" vertex="1">
          <mxGeometry x="60" y="140" width="520" height="330" as="geometry" />
        </mxCell>
        <mxCell id="8jgpT3Tyx8E5zrP-pSie-1" value="&lt;p style=&quot;margin:0px;margin-top:4px;text-align:center;&quot;&gt;&lt;i&gt;&amp;lt;&amp;lt;Aggregate Root&amp;gt;&amp;gt;&lt;/i&gt;&lt;br&gt;&lt;b&gt;Server&lt;/b&gt;&lt;/p&gt;&lt;hr size=&quot;1&quot; style=&quot;border-style:solid;&quot;&gt;&lt;p style=&quot;margin:0px;margin-left:4px;&quot;&gt;ServerID&lt;/p&gt;&lt;p style=&quot;margin:0px;margin-left:4px;&quot;&gt;Partecipants&lt;/p&gt;&lt;p style=&quot;margin:0px;margin-left:4px;&quot;&gt;...&lt;/p&gt;" style="verticalAlign=top;align=left;overflow=fill;html=1;whiteSpace=wrap;" parent="1" vertex="1">
          <mxGeometry x="90" y="170" width="190" height="90" as="geometry" />
        </mxCell>
        <mxCell id="8jgpT3Tyx8E5zrP-pSie-4" value="" style="edgeStyle=orthogonalEdgeStyle;rounded=0;orthogonalLoop=1;jettySize=auto;html=1;endArrow=diamond;endFill=1;" parent="1" source="8jgpT3Tyx8E5zrP-pSie-3" target="8jgpT3Tyx8E5zrP-pSie-1" edge="1">
          <mxGeometry relative="1" as="geometry" />
        </mxCell>
        <mxCell id="8jgpT3Tyx8E5zrP-pSie-3" value="&lt;p style=&quot;margin:0px;margin-top:4px;text-align:center;&quot;&gt;&lt;i&gt;&amp;lt;&amp;lt;Entity&amp;gt;&amp;gt;&lt;/i&gt;&lt;br&gt;&lt;b&gt;Channel&lt;/b&gt;&lt;/p&gt;&lt;hr size=&quot;1&quot; style=&quot;border-style:solid;&quot;&gt;&lt;p style=&quot;margin:0px;margin-left:4px;&quot;&gt;ChannelID&lt;/p&gt;&lt;p style=&quot;margin:0px;margin-left:4px;&quot;&gt;ChannelType&lt;/p&gt;&lt;p style=&quot;margin:0px;margin-left:4px;&quot;&gt;...&lt;/p&gt;" style="verticalAlign=top;align=left;overflow=fill;html=1;whiteSpace=wrap;" parent="1" vertex="1">
          <mxGeometry x="90" y="330" width="190" height="90" as="geometry" />
        </mxCell>
        <mxCell id="8jgpT3Tyx8E5zrP-pSie-6" value="" style="edgeStyle=orthogonalEdgeStyle;rounded=0;orthogonalLoop=1;jettySize=auto;html=1;endArrow=diamondThin;endFill=1;" parent="1" source="8jgpT3Tyx8E5zrP-pSie-5" target="8jgpT3Tyx8E5zrP-pSie-3" edge="1">
          <mxGeometry relative="1" as="geometry" />
        </mxCell>
        <mxCell id="8jgpT3Tyx8E5zrP-pSie-5" value="&lt;p style=&quot;margin:0px;margin-top:4px;text-align:center;&quot;&gt;&lt;i&gt;&amp;lt;&amp;lt;Entity&amp;gt;&amp;gt;&lt;/i&gt;&lt;br&gt;&lt;b&gt;Message&lt;/b&gt;&lt;/p&gt;&lt;hr size=&quot;1&quot; style=&quot;border-style:solid;&quot;&gt;&lt;p style=&quot;margin:0px;margin-left:4px;&quot;&gt;MessageID&lt;/p&gt;&lt;p style=&quot;margin:0px;margin-left:4px;&quot;&gt;Content&lt;/p&gt;&lt;p style=&quot;margin:0px;margin-left:4px;&quot;&gt;...&lt;/p&gt;" style="verticalAlign=top;align=left;overflow=fill;html=1;whiteSpace=wrap;" parent="1" vertex="1">
          <mxGeometry x="350" y="330" width="190" height="90" as="geometry" />
        </mxCell>
        <mxCell id="8jgpT3Tyx8E5zrP-pSie-8" value="Server Bounded Context" style="text;html=1;align=center;verticalAlign=middle;whiteSpace=wrap;rounded=0;" parent="1" vertex="1">
          <mxGeometry x="360" y="160" width="140" height="30" as="geometry" />
        </mxCell>
        <mxCell id="8jgpT3Tyx8E5zrP-pSie-9" value="" style="rounded=1;whiteSpace=wrap;html=1;dashed=1;" parent="1" vertex="1">
          <mxGeometry x="600" y="140" width="520" height="330" as="geometry" />
        </mxCell>
        <mxCell id="rSv96SqV-0SLtbvaQxN7-3" value="" style="edgeStyle=orthogonalEdgeStyle;rounded=0;orthogonalLoop=1;jettySize=auto;html=1;startArrow=classic;startFill=1;" parent="1" source="8jgpT3Tyx8E5zrP-pSie-10" target="8jgpT3Tyx8E5zrP-pSie-12" edge="1">
          <mxGeometry relative="1" as="geometry" />
        </mxCell>
        <mxCell id="8jgpT3Tyx8E5zrP-pSie-10" value="&lt;p style=&quot;margin:0px;margin-top:4px;text-align:center;&quot;&gt;&lt;i&gt;&amp;lt;&amp;lt;Aggregate Root&amp;gt;&amp;gt;&lt;/i&gt;&lt;br&gt;&lt;b&gt;FriendshipRequest&lt;/b&gt;&lt;/p&gt;&lt;hr size=&quot;1&quot; style=&quot;border-style:solid;&quot;&gt;&lt;p style=&quot;margin:0px;margin-left:4px;&quot;&gt;FriendshipRequestId&lt;/p&gt;&lt;p style=&quot;margin:0px;margin-left:4px;&quot;&gt;From&lt;/p&gt;&lt;p style=&quot;margin:0px;margin-left:4px;&quot;&gt;To&lt;/p&gt;&lt;p style=&quot;margin:0px;margin-left:4px;&quot;&gt;&lt;br&gt;&lt;/p&gt;" style="verticalAlign=top;align=left;overflow=fill;html=1;whiteSpace=wrap;" parent="1" vertex="1">
          <mxGeometry x="900" y="170" width="190" height="100" as="geometry" />
        </mxCell>
        <mxCell id="8jgpT3Tyx8E5zrP-pSie-12" value="&lt;p style=&quot;margin:0px;margin-top:4px;text-align:center;&quot;&gt;&lt;i&gt;&amp;lt;&amp;lt;Aggregate Root&amp;gt;&amp;gt;&lt;/i&gt;&lt;br&gt;&lt;b&gt;Friendship&lt;/b&gt;&lt;/p&gt;&lt;hr size=&quot;1&quot; style=&quot;border-style:solid;&quot;&gt;&lt;p style=&quot;margin:0px;margin-left:4px;&quot;&gt;FriendshipId&lt;/p&gt;&lt;p style=&quot;margin:0px;margin-left:4px;&quot;&gt;Members&lt;/p&gt;&lt;p style=&quot;margin:0px;margin-left:4px;&quot;&gt;...&lt;/p&gt;" style="verticalAlign=top;align=left;overflow=fill;html=1;whiteSpace=wrap;" parent="1" vertex="1">
          <mxGeometry x="900" y="330" width="190" height="90" as="geometry" />
        </mxCell>
        <mxCell id="8jgpT3Tyx8E5zrP-pSie-13" value="" style="edgeStyle=orthogonalEdgeStyle;rounded=0;orthogonalLoop=1;jettySize=auto;html=1;endArrow=diamondThin;endFill=1;" parent="1" source="8jgpT3Tyx8E5zrP-pSie-14" target="8jgpT3Tyx8E5zrP-pSie-12" edge="1">
          <mxGeometry relative="1" as="geometry" />
        </mxCell>
        <mxCell id="8jgpT3Tyx8E5zrP-pSie-14" value="&lt;p style=&quot;margin:0px;margin-top:4px;text-align:center;&quot;&gt;&lt;i&gt;&amp;lt;&amp;lt;Entity&amp;gt;&amp;gt;&lt;/i&gt;&lt;br&gt;&lt;b&gt;Message&lt;/b&gt;&lt;/p&gt;&lt;hr size=&quot;1&quot; style=&quot;border-style:solid;&quot;&gt;&lt;p style=&quot;margin:0px;margin-left:4px;&quot;&gt;MessageID&lt;/p&gt;&lt;p style=&quot;margin:0px;margin-left:4px;&quot;&gt;Content&lt;/p&gt;&lt;p style=&quot;margin:0px;margin-left:4px;&quot;&gt;...&lt;/p&gt;" style="verticalAlign=top;align=left;overflow=fill;html=1;whiteSpace=wrap;" parent="1" vertex="1">
          <mxGeometry x="640" y="330" width="190" height="90" as="geometry" />
        </mxCell>
        <mxCell id="8jgpT3Tyx8E5zrP-pSie-15" value="Friendships Bounded Context" style="text;html=1;align=center;verticalAlign=middle;whiteSpace=wrap;rounded=0;" parent="1" vertex="1">
          <mxGeometry x="655" y="160" width="175" height="30" as="geometry" />
        </mxCell>
        <mxCell id="miqBi6XRI_HRq4y1deOu-1" value="" style="rounded=1;whiteSpace=wrap;html=1;dashed=1;" vertex="1" parent="1">
          <mxGeometry x="-490" y="530" width="450" height="230" as="geometry" />
        </mxCell>
        <mxCell id="miqBi6XRI_HRq4y1deOu-9" style="edgeStyle=orthogonalEdgeStyle;rounded=0;orthogonalLoop=1;jettySize=auto;html=1;exitX=0;exitY=0.25;exitDx=0;exitDy=0;entryX=1;entryY=0.5;entryDx=0;entryDy=0;" edge="1" parent="1" source="miqBi6XRI_HRq4y1deOu-2" target="miqBi6XRI_HRq4y1deOu-8">
          <mxGeometry relative="1" as="geometry" />
        </mxCell>
        <mxCell id="miqBi6XRI_HRq4y1deOu-11" style="edgeStyle=orthogonalEdgeStyle;rounded=0;orthogonalLoop=1;jettySize=auto;html=1;exitX=0;exitY=0.75;exitDx=0;exitDy=0;entryX=1;entryY=0.5;entryDx=0;entryDy=0;" edge="1" parent="1" source="miqBi6XRI_HRq4y1deOu-2" target="miqBi6XRI_HRq4y1deOu-10">
          <mxGeometry relative="1" as="geometry" />
        </mxCell>
        <mxCell id="miqBi6XRI_HRq4y1deOu-2" value="&lt;p style=&quot;margin:0px;margin-top:4px;text-align:center;&quot;&gt;&lt;i&gt;&amp;lt;&amp;lt;Aggregate Root&amp;gt;&amp;gt;&lt;/i&gt;&lt;br&gt;&lt;b&gt;User&lt;/b&gt;&lt;/p&gt;&lt;hr size=&quot;1&quot; style=&quot;border-style:solid;&quot;&gt;&lt;p style=&quot;margin:0px;margin-left:4px;&quot;&gt;Username&lt;/p&gt;&lt;p style=&quot;margin:0px;margin-left:4px;&quot;&gt;Password&lt;/p&gt;&lt;p style=&quot;margin:0px;margin-left:4px;&quot;&gt;...&lt;/p&gt;" style="verticalAlign=top;align=left;overflow=fill;html=1;whiteSpace=wrap;" vertex="1" parent="1">
          <mxGeometry x="-270" y="630" width="190" height="90" as="geometry" />
        </mxCell>
        <mxCell id="miqBi6XRI_HRq4y1deOu-7" value="User Bounded Context" style="text;html=1;align=center;verticalAlign=middle;whiteSpace=wrap;rounded=0;" vertex="1" parent="1">
          <mxGeometry x="-335" y="545" width="140" height="30" as="geometry" />
        </mxCell>
        <mxCell id="miqBi6XRI_HRq4y1deOu-8" value="&lt;p style=&quot;margin:0px;margin-top:4px;text-align:center;&quot;&gt;&lt;i&gt;&amp;lt;&amp;lt;Factory&amp;gt;&amp;gt;&lt;/i&gt;&lt;br&gt;&lt;b&gt;UserFactory&lt;/b&gt;&lt;/p&gt;" style="verticalAlign=top;align=left;overflow=fill;html=1;whiteSpace=wrap;" vertex="1" parent="1">
          <mxGeometry x="-460" y="620" width="140" height="40" as="geometry" />
        </mxCell>
        <mxCell id="miqBi6XRI_HRq4y1deOu-10" value="&lt;p style=&quot;margin:0px;margin-top:4px;text-align:center;&quot;&gt;&lt;i&gt;&amp;lt;&amp;lt;Repository&amp;gt;&amp;gt;&lt;/i&gt;&lt;br&gt;&lt;b&gt;UserRepository&lt;/b&gt;&lt;/p&gt;" style="verticalAlign=top;align=left;overflow=fill;html=1;whiteSpace=wrap;" vertex="1" parent="1">
          <mxGeometry x="-460" y="690" width="140" height="40" as="geometry" />
        </mxCell>
        <mxCell id="miqBi6XRI_HRq4y1deOu-12" value="" style="rounded=1;whiteSpace=wrap;html=1;dashed=1;" vertex="1" parent="1">
          <mxGeometry x="-15" y="770" width="670" height="390" as="geometry" />
        </mxCell>
        <mxCell id="miqBi6XRI_HRq4y1deOu-13" value="Multimedia Bounded Context" style="text;html=1;align=center;verticalAlign=middle;whiteSpace=wrap;rounded=0;" vertex="1" parent="1">
          <mxGeometry x="232.5" y="790" width="175" height="30" as="geometry" />
        </mxCell>
        <mxCell id="miqBi6XRI_HRq4y1deOu-14" value="&lt;p style=&quot;margin:0px;margin-top:4px;text-align:center;&quot;&gt;&lt;i&gt;&amp;lt;&amp;lt;Entity&amp;gt;&amp;gt;&lt;/i&gt;&lt;br&gt;&lt;b&gt;User&lt;/b&gt;&lt;/p&gt;&lt;hr size=&quot;1&quot; style=&quot;border-style:solid;&quot;&gt;&lt;p style=&quot;margin:0px;margin-left:4px;&quot;&gt;Username&lt;br&gt;&lt;/p&gt;" style="verticalAlign=top;align=left;overflow=fill;html=1;whiteSpace=wrap;" vertex="1" parent="1">
          <mxGeometry x="85" y="880" width="110" height="70" as="geometry" />
        </mxCell>
        <mxCell id="miqBi6XRI_HRq4y1deOu-19" style="edgeStyle=orthogonalEdgeStyle;rounded=0;orthogonalLoop=1;jettySize=auto;html=1;exitX=1;exitY=0.5;exitDx=0;exitDy=0;entryX=0;entryY=0.5;entryDx=0;entryDy=0;" edge="1" parent="1" source="miqBi6XRI_HRq4y1deOu-15" target="miqBi6XRI_HRq4y1deOu-16">
          <mxGeometry relative="1" as="geometry" />
        </mxCell>
        <mxCell id="miqBi6XRI_HRq4y1deOu-20" style="edgeStyle=orthogonalEdgeStyle;rounded=0;orthogonalLoop=1;jettySize=auto;html=1;exitX=1;exitY=0.5;exitDx=0;exitDy=0;entryX=0;entryY=0.5;entryDx=0;entryDy=0;" edge="1" parent="1" source="miqBi6XRI_HRq4y1deOu-15" target="miqBi6XRI_HRq4y1deOu-17">
          <mxGeometry relative="1" as="geometry" />
        </mxCell>
        <mxCell id="miqBi6XRI_HRq4y1deOu-25" style="edgeStyle=orthogonalEdgeStyle;rounded=0;orthogonalLoop=1;jettySize=auto;html=1;exitX=0;exitY=0.5;exitDx=0;exitDy=0;entryX=1;entryY=0.5;entryDx=0;entryDy=0;" edge="1" parent="1" source="miqBi6XRI_HRq4y1deOu-15" target="miqBi6XRI_HRq4y1deOu-14">
          <mxGeometry relative="1" as="geometry" />
        </mxCell>
        <mxCell id="miqBi6XRI_HRq4y1deOu-15" value="&lt;p style=&quot;margin:0px;margin-top:4px;text-align:center;&quot;&gt;&lt;i&gt;&amp;lt;&amp;lt;Aggregate Root&amp;gt;&amp;gt;&lt;/i&gt;&lt;br&gt;&lt;b&gt;Session&lt;/b&gt;&lt;/p&gt;&lt;hr size=&quot;1&quot; style=&quot;border-style:solid;&quot;&gt;&lt;p style=&quot;margin:0px;margin-left:4px;&quot;&gt;AllowedUsers&lt;/p&gt;&lt;p style=&quot;margin:0px;margin-left:4px;&quot;&gt;Participants&lt;/p&gt;&lt;p style=&quot;margin:0px;margin-left:4px;&quot;&gt;...&lt;/p&gt;" style="verticalAlign=top;align=left;overflow=fill;html=1;whiteSpace=wrap;" vertex="1" parent="1">
          <mxGeometry x="290" y="870" width="150" height="90" as="geometry" />
        </mxCell>
        <mxCell id="miqBi6XRI_HRq4y1deOu-16" value="&lt;p style=&quot;margin:0px;margin-top:4px;text-align:center;&quot;&gt;&lt;i&gt;&amp;lt;&amp;lt;Factory&amp;gt;&amp;gt;&lt;/i&gt;&lt;br&gt;&lt;b&gt;SessionFactory&lt;/b&gt;&lt;/p&gt;" style="verticalAlign=top;align=left;overflow=fill;html=1;whiteSpace=wrap;" vertex="1" parent="1">
          <mxGeometry x="500" y="860" width="140" height="40" as="geometry" />
        </mxCell>
        <mxCell id="miqBi6XRI_HRq4y1deOu-17" value="&lt;p style=&quot;margin:0px;margin-top:4px;text-align:center;&quot;&gt;&lt;i&gt;&amp;lt;&amp;lt;Repository&amp;gt;&amp;gt;&lt;/i&gt;&lt;br&gt;&lt;b&gt;SessionRepository&lt;/b&gt;&lt;/p&gt;" style="verticalAlign=top;align=left;overflow=fill;html=1;whiteSpace=wrap;" vertex="1" parent="1">
          <mxGeometry x="500" y="930" width="140" height="40" as="geometry" />
        </mxCell>
        <mxCell id="miqBi6XRI_HRq4y1deOu-24" style="edgeStyle=orthogonalEdgeStyle;rounded=0;orthogonalLoop=1;jettySize=auto;html=1;exitX=1;exitY=0.5;exitDx=0;exitDy=0;entryX=0;entryY=0.5;entryDx=0;entryDy=0;" edge="1" parent="1" source="miqBi6XRI_HRq4y1deOu-21" target="miqBi6XRI_HRq4y1deOu-22">
          <mxGeometry relative="1" as="geometry" />
        </mxCell>
        <mxCell id="miqBi6XRI_HRq4y1deOu-21" value="&lt;p style=&quot;margin:0px;margin-top:4px;text-align:center;&quot;&gt;&lt;i&gt;&amp;lt;&amp;lt;Aggregate Root&amp;gt;&amp;gt;&lt;/i&gt;&lt;br&gt;&lt;b&gt;Server&lt;/b&gt;&lt;/p&gt;&lt;hr size=&quot;1&quot; style=&quot;border-style:solid;&quot;&gt;&lt;p style=&quot;margin:0px;margin-left:4px;&quot;&gt;ServerID&lt;/p&gt;&lt;p style=&quot;margin:0px;margin-left:4px;&quot;&gt;Partecipants&lt;/p&gt;&lt;p style=&quot;margin:0px;margin-left:4px;&quot;&gt;...&lt;/p&gt;" style="verticalAlign=top;align=left;overflow=fill;html=1;whiteSpace=wrap;" vertex="1" parent="1">
          <mxGeometry x="5" y="1020" width="115" height="90" as="geometry" />
        </mxCell>
        <mxCell id="miqBi6XRI_HRq4y1deOu-23" style="edgeStyle=orthogonalEdgeStyle;rounded=0;orthogonalLoop=1;jettySize=auto;html=1;exitX=0.5;exitY=0;exitDx=0;exitDy=0;entryX=0.25;entryY=1;entryDx=0;entryDy=0;" edge="1" parent="1" source="miqBi6XRI_HRq4y1deOu-22" target="miqBi6XRI_HRq4y1deOu-15">
          <mxGeometry relative="1" as="geometry" />
        </mxCell>
        <mxCell id="miqBi6XRI_HRq4y1deOu-22" value="&lt;p style=&quot;margin:0px;margin-top:4px;text-align:center;&quot;&gt;&lt;i&gt;&amp;lt;&amp;lt;Entity&amp;gt;&amp;gt;&lt;/i&gt;&lt;br&gt;&lt;b&gt;Channel&lt;/b&gt;&lt;/p&gt;&lt;hr size=&quot;1&quot; style=&quot;border-style:solid;&quot;&gt;&lt;p style=&quot;margin:0px;margin-left:4px;&quot;&gt;ChannelID&lt;/p&gt;&lt;p style=&quot;margin:0px;margin-left:4px;&quot;&gt;SessionId&lt;/p&gt;&lt;p style=&quot;margin:0px;margin-left:4px;&quot;&gt;...&lt;/p&gt;" style="verticalAlign=top;align=left;overflow=fill;html=1;whiteSpace=wrap;" vertex="1" parent="1">
          <mxGeometry x="161.25" y="1050" width="107.5" height="90" as="geometry" />
        </mxCell>
        <mxCell id="miqBi6XRI_HRq4y1deOu-27" style="edgeStyle=orthogonalEdgeStyle;rounded=0;orthogonalLoop=1;jettySize=auto;html=1;exitX=0.5;exitY=0;exitDx=0;exitDy=0;entryX=0.75;entryY=1;entryDx=0;entryDy=0;" edge="1" parent="1" source="miqBi6XRI_HRq4y1deOu-26" target="miqBi6XRI_HRq4y1deOu-15">
          <mxGeometry relative="1" as="geometry" />
        </mxCell>
        <mxCell id="miqBi6XRI_HRq4y1deOu-26" value="&lt;p style=&quot;margin:0px;margin-top:4px;text-align:center;&quot;&gt;&lt;i&gt;&amp;lt;&amp;lt;Aggregate Root&amp;gt;&amp;gt;&lt;/i&gt;&lt;br&gt;&lt;b&gt;Direct&lt;/b&gt;&lt;/p&gt;&lt;hr size=&quot;1&quot; style=&quot;border-style:solid;&quot;&gt;&lt;p style=&quot;margin:0px;margin-left:4px;&quot;&gt;Users&lt;/p&gt;&lt;p style=&quot;margin:0px;margin-left:4px;&quot;&gt;SessionId&lt;/p&gt;&lt;p style=&quot;margin:0px;margin-left:4px;&quot;&gt;...&lt;/p&gt;" style="verticalAlign=top;align=left;overflow=fill;html=1;whiteSpace=wrap;" vertex="1" parent="1">
          <mxGeometry x="400" y="1050" width="120" height="90" as="geometry" />
        </mxCell>
      </root>
    </mxGraphModel>
  </diagram>
</mxfile>
